<svg xmlns="http://www.w3.org/2000/svg" role="img" width="24" height="24"><rect id="backgroundrect" width="100%" height="100%" x="0" y="0" fill="none" stroke="none"/><title>Spring Boot</title><g class="currentLayer" style=""><title>Layer 1</title><path d="m24.428294103622438,10.7058 l-4.73,-8.1844 c-0.40940000000000004,-0.7106000000000001 -1.4166,-1.2942 -2.2402,-1.2942 H8.007794103622437 c-0.8190000000000001,0 -1.8308,0.5836000000000001 -2.2402,1.2942 L1.0422941036224365,10.7058 c-0.40950000000000003,0.7106000000000001 -0.40950000000000003,1.8730000000000002 0,2.5837000000000003 l4.7252,8.189 c0.40940000000000004,0.7107000000000001 1.4166,1.2943 2.2402,1.2943 h9.455 c0.8190000000000001,0 1.826,-0.5836000000000001 2.2402,-1.2942 l4.7252,-8.189 c0.40950000000000003,-0.7107000000000001 0.40950000000000003,-1.8732000000000002 0,-2.5838 zM11.711594103622437,5.7547 c0,-0.5365 0.43770000000000003,-0.9742 0.9742,-0.9742 s0.9742,0.43770000000000003 0.9742,0.9742 v5.8217 c0,0.5366000000000001 -0.43770000000000003,0.9742 -0.9742,0.9742 s-0.9742,-0.43760000000000004 -0.9742,-0.9742 zm0.9742,12.4294 c-3.6427,0 -6.6077,-2.965 -6.6077,-6.6077 c0.004700000000000001,-2.0896 0.993,-4.0521 2.6685,-5.304 a0.8657000000000001,0.8657000000000001 0 0 1 1.2142,0.17880000000000001 a0.8657000000000001,0.8657000000000001 0 0 1 -0.17880000000000001,1.2143 c-2.1602,1.6048 -2.612,4.6592 -1.0072,6.8194 c1.6049000000000002,2.1603 4.6593,2.612 6.8195,1.0072 c1.2378,-0.9177000000000001 1.9673,-2.372 1.9673,-3.9157 a4.8972,4.8972 0 0 0 -1.9861,-3.925 c-0.38600000000000007,-0.28240000000000004 -0.466,-0.8284 -0.1836,-1.2143 c0.28240000000000004,-0.38600000000000007 0.8283,-0.466 1.2143,-0.18350000000000002 c1.6895000000000002,1.2471 2.6826000000000003,3.2238 2.6873,5.3228 c0,3.6474 -2.965,6.6077 -6.6077,6.6077 z" id="svg_1" class="selected" fill="#03b36d" fill-opacity="1"/></g></svg>